# Blender 4.0.2
# www.blender.org
mtllib silla.mtl
o Cubo
v 0.569518 0.075962 -0.606252
v 0.569518 -0.823410 -0.606252
v 0.569518 0.075962 -0.454329
v 0.569518 -0.823410 -0.454329
v 0.417594 0.075962 -0.606252
v 0.417594 -0.823410 -0.606252
v 0.417594 0.075962 -0.454329
v 0.417594 -0.823410 -0.454329
v 0.569518 0.182498 -0.454329
v 0.569518 0.182498 -0.606252
v 0.417594 0.182498 -0.454329
v 0.417594 0.182498 -0.606252
v 0.417594 0.075962 0.460623
v 0.569518 0.075962 0.460623
v 0.417594 0.182498 0.460623
v 0.569518 0.182498 0.460623
v 0.417594 0.075962 0.456430
v 0.417594 0.182498 0.456430
v 0.569518 0.075962 -0.301837
v 0.569518 0.075962 -0.149345
v 0.569518 0.075962 0.003147
v 0.569518 0.075962 0.155639
v 0.569518 0.075962 0.308131
v 0.569518 0.182498 0.308131
v 0.569518 0.182498 0.155639
v 0.569518 0.182498 0.003147
v 0.569518 0.182498 -0.149345
v 0.569518 0.182498 -0.301837
v 0.417594 0.075962 -0.301837
v 0.417594 0.075962 -0.149345
v 0.417594 0.075962 0.003147
v 0.417594 0.075962 0.155639
v 0.417594 0.075962 0.308131
v 0.417594 0.182498 0.308131
v 0.417594 0.182498 0.155639
v 0.417594 0.182498 0.003147
v 0.417594 0.182498 -0.149345
v 0.417594 0.182498 -0.301837
v 0.417594 0.075962 0.460623
v 0.569518 0.075962 0.460623
v 0.569518 0.075962 0.308131
v 0.417594 0.075962 0.308131
v 0.417594 -0.815691 0.460623
v 0.569518 -0.815691 0.460623
v 0.569518 -0.815691 0.308131
v 0.417594 -0.815691 0.308131
v 0.569518 1.156186 -0.454329
v 0.569518 1.156186 -0.606252
v 0.417594 1.156186 -0.454329
v 0.417594 1.156186 -0.606252
v 0.569518 0.331221 -0.454329
v 0.569518 0.493502 -0.454329
v 0.569518 0.655784 -0.454329
v 0.569518 0.818065 -0.454329
v 0.569518 0.980346 -0.454329
v 0.569518 0.980346 -0.606252
v 0.569518 0.818065 -0.606252
v 0.569518 0.655784 -0.606252
v 0.569518 0.493502 -0.606252
v 0.569518 0.331221 -0.606252
v 0.417594 0.980346 -0.606252
v 0.417594 0.818065 -0.606252
v 0.417594 0.616454 -0.566922
v 0.417594 0.532832 -0.566922
v 0.417594 0.331221 -0.606252
v 0.417594 0.331221 -0.454329
v 0.417594 0.532832 -0.493658
v 0.417594 0.616454 -0.493658
v 0.417594 0.818065 -0.454329
v 0.417594 0.980346 -0.454329
v 0.417594 0.980346 -0.606252
v 0.417594 0.818065 -0.606252
v 0.417594 0.818065 -0.454329
v 0.417594 0.980346 -0.454329
v 0.417594 0.655784 -0.606252
v 0.417594 0.493502 -0.606252
v 0.417594 0.493502 -0.454329
v 0.417594 0.655784 -0.454329
v -0.001266 0.182498 -0.454329
v -0.001266 0.182498 -0.606252
v -0.001266 0.075962 -0.606252
v -0.001266 0.075962 -0.454329
v -0.001266 0.182498 0.456430
v -0.001266 0.075962 0.456430
v -0.003791 0.616454 -0.493658
v -0.003791 0.616454 -0.566922
v -0.003791 0.532832 -0.493658
v -0.003791 0.532832 -0.566922
v -0.003248 0.818065 -0.454329
v -0.003248 0.980346 -0.454329
v -0.003248 0.818065 -0.606252
v -0.003248 0.980346 -0.606252
v -0.569518 0.075962 -0.606252
v -0.569518 -0.823410 -0.606252
v -0.569518 0.075962 -0.454329
v -0.569518 -0.823410 -0.454329
v -0.417594 0.075962 -0.606252
v -0.417594 -0.823410 -0.606252
v -0.417594 0.075962 -0.454329
v -0.417594 -0.823410 -0.454329
v -0.569518 0.182498 -0.454329
v -0.569518 0.182498 -0.606252
v -0.417594 0.182498 -0.454329
v -0.417594 0.182498 -0.606252
v -0.417594 0.075962 0.460623
v -0.569518 0.075962 0.460623
v -0.417594 0.182498 0.460623
v -0.569518 0.182498 0.460623
v -0.417594 0.075962 0.456430
v -0.417594 0.182498 0.456430
v -0.569518 0.075962 -0.301837
v -0.569518 0.075962 -0.149345
v -0.569518 0.075962 0.003147
v -0.569518 0.075962 0.155639
v -0.569518 0.075962 0.308131
v -0.569518 0.182498 0.308131
v -0.569518 0.182498 0.155639
v -0.569518 0.182498 0.003147
v -0.569518 0.182498 -0.149345
v -0.569518 0.182498 -0.301837
v -0.417594 0.075962 -0.301837
v -0.417594 0.075962 -0.149345
v -0.417594 0.075962 0.003147
v -0.417594 0.075962 0.155639
v -0.417594 0.075962 0.308131
v -0.417594 0.182498 0.308131
v -0.417594 0.182498 0.155639
v -0.417594 0.182498 0.003147
v -0.417594 0.182498 -0.149345
v -0.417594 0.182498 -0.301837
v -0.417594 0.075962 0.460623
v -0.569518 0.075962 0.460623
v -0.569518 0.075962 0.308131
v -0.417594 0.075962 0.308131
v -0.417594 -0.815691 0.460623
v -0.569518 -0.815691 0.460623
v -0.569518 -0.815691 0.308131
v -0.417594 -0.815691 0.308131
v -0.569518 1.156186 -0.454329
v -0.569518 1.156186 -0.606252
v -0.417594 1.156186 -0.454329
v -0.417594 1.156186 -0.606252
v -0.569518 0.331221 -0.454329
v -0.569518 0.493502 -0.454329
v -0.569518 0.655784 -0.454329
v -0.569518 0.818065 -0.454329
v -0.569518 0.980346 -0.454329
v -0.569518 0.980346 -0.606252
v -0.569518 0.818065 -0.606252
v -0.569518 0.655784 -0.606252
v -0.569518 0.493502 -0.606252
v -0.569518 0.331221 -0.606252
v -0.417594 0.980346 -0.606252
v -0.417594 0.818065 -0.606252
v -0.417594 0.616454 -0.566922
v -0.417594 0.532832 -0.566922
v -0.417594 0.331221 -0.606252
v -0.417594 0.331221 -0.454329
v -0.417594 0.532832 -0.493658
v -0.417594 0.616454 -0.493658
v -0.417594 0.818065 -0.454329
v -0.417594 0.980346 -0.454329
v -0.417594 0.980346 -0.606252
v -0.417594 0.818065 -0.606252
v -0.417594 0.818065 -0.454329
v -0.417594 0.980346 -0.454329
v -0.417594 0.655784 -0.606252
v -0.417594 0.493502 -0.606252
v -0.417594 0.493502 -0.454329
v -0.417594 0.655784 -0.454329
v 0.001266 0.182498 -0.454329
v 0.001266 0.182498 -0.606252
v 0.001266 0.075962 -0.606252
v 0.001266 0.075962 -0.454329
v 0.001266 0.182498 0.456430
v 0.001266 0.075962 0.456430
v 0.003791 0.616454 -0.493658
v 0.003791 0.616454 -0.566922
v 0.003791 0.532832 -0.493658
v 0.003791 0.532832 -0.566922
v 0.003248 0.818065 -0.454329
v 0.003248 0.980346 -0.454329
v 0.003248 0.818065 -0.606252
v 0.003248 0.980346 -0.606252
vn 1.0000 -0.0000 -0.0000
vn -0.0000 -0.0000 1.0000
vn -1.0000 -0.0000 -0.0000
vn -0.0000 -0.0000 -1.0000
vn -0.0000 -1.0000 -0.0000
vn -0.0000 1.0000 -0.0000
vt 0.000000 0.374979
vt 0.000000 0.000000
vt 0.063342 0.000000
vt 0.063342 0.374979
vt 0.682797 0.754706
vt 0.682797 0.379727
vt 0.746139 0.379727
vt 0.746139 0.754706
vt 0.727216 0.374979
vt 0.727216 0.000000
vt 0.790558 0.000000
vt 0.790558 0.374979
vt 0.444817 0.374979
vt 0.444817 0.000000
vt 0.508159 0.000000
vt 0.508159 0.374979
vt 0.508159 0.419398
vt 0.444817 0.419398
vt 0.809481 0.990294
vt 0.746139 0.990294
vt 0.746139 0.926952
vt 0.809481 0.926952
vt 0.000000 0.752049
vt 0.063342 0.752049
vt 0.063342 0.825362
vt 0.000000 0.825362
vt 0.381238 0.419398
vt 0.381238 0.374979
vt 0.063342 0.419398
vt 0.000000 0.419398
vt 0.813800 0.990520
vt 0.813800 0.927178
vt 0.858219 0.927178
vt 0.858219 0.990520
vt 0.508159 0.481406
vt 0.361130 0.893023
vt 0.424472 0.893023
vt 0.424472 0.956602
vt 0.361130 0.956602
vt 0.936402 0.846760
vt 0.980821 0.846760
vt 0.980821 0.910339
vt 0.936402 0.910339
vt 0.508159 0.000000
vt 0.682797 0.000000
vt 0.508159 0.379727
vt 0.727216 0.379727
vt 0.682797 0.379727
vt 0.682797 0.000000
vt 0.727216 -0.000000
vt 0.873060 0.656023
vt 0.917479 0.656023
vt 0.917479 0.719602
vt 0.873060 0.719602
vt 0.917479 0.783181
vt 0.873060 0.783181
vt 0.917479 0.846760
vt 0.873060 0.846760
vt 0.936403 0.555417
vt 0.980821 0.555417
vt 0.980821 0.618996
vt 0.936403 0.618996
vt 0.936402 0.910339
vt 0.980821 0.910339
vt 0.980821 0.973918
vt 0.936402 0.973918
vt 0.044419 0.898676
vt 0.107761 0.898676
vt 0.107761 0.962255
vt 0.044419 0.962255
vt 0.234445 0.893023
vt 0.297788 0.893023
vt 0.297788 0.956602
vt 0.234445 0.956602
vt 0.361130 0.893023
vt 0.361130 0.956602
vt 0.297788 0.956602
vt 0.107761 0.898676
vt 0.171103 0.898676
vt 0.171103 0.962255
vt 0.107761 0.962255
vt 0.873060 0.914421
vt 0.936402 0.914421
vt 0.936402 0.978000
vt 0.873060 0.978000
vt 0.854137 0.000000
vt 0.917479 0.000000
vt 0.917479 0.063579
vt 0.854137 0.063579
vt 0.917479 0.127158
vt 0.854137 0.127158
vt 0.917479 0.190737
vt 0.854137 0.190737
vt 0.917479 0.254317
vt 0.854137 0.254317
vt 0.917479 0.317896
vt 0.854137 0.317896
vt 0.126921 0.374979
vt 0.126921 0.419398
vt 0.190500 0.374979
vt 0.190500 0.419398
vt 0.254080 0.374979
vt 0.254080 0.419398
vt 0.317659 0.374979
vt 0.317659 0.419398
vt 0.508159 0.853167
vt 0.444817 0.853167
vt 0.444817 0.481406
vt 0.508159 0.481406
vt 0.444817 0.920828
vt 0.508159 0.920828
vt 0.508159 0.984407
vt 0.444817 0.984407
vt 0.809718 0.751488
vt 0.746139 0.751488
vt 0.746139 0.379727
vt 0.809718 0.379727
vt 0.854137 0.371761
vt 0.790558 0.371761
vt 0.873060 0.751488
vt 0.809718 0.751488
vt 0.809718 0.379727
vt 0.873060 0.379727
vt 0.746139 0.993512
vt 0.682797 0.993512
vt 0.682797 0.930170
vt 0.746139 0.930170
vt 0.873060 0.582709
vt 0.936402 0.582709
vt 0.936402 0.656023
vt 0.873060 0.656023
vt 0.044419 0.825362
vt 0.107761 0.825362
vt 0.107761 0.825362
vt 0.171103 0.825362
vt 0.570167 0.998260
vt 0.570167 0.934917
vt 0.632174 0.934917
vt 0.632174 0.998260
vt 0.234445 0.825362
vt 0.297788 0.825362
vt 0.508159 0.920828
vt 0.444817 0.920828
vt 0.508159 0.998260
vt 0.508159 0.934917
vt 0.570167 0.934917
vt 0.570167 0.998260
vt 0.297788 0.825362
vt 0.361130 0.825362
vt 0.297788 0.893023
vt 0.171103 0.825362
vt 0.234445 0.825362
vt 0.234445 0.893023
vt 0.171103 0.893023
vt 0.873060 0.846760
vt 0.936402 0.846760
vt 0.234445 0.960684
vt 0.171103 0.960684
vt 0.508159 0.481406
vt 0.444817 0.481406
vt 0.424472 0.825362
vt 0.424472 0.893023
vt 0.873060 0.379727
vt 0.936402 0.379727
vt 0.936402 0.447388
vt 0.873060 0.447388
vt 0.936402 0.515048
vt 0.873060 0.515048
vt 0.063342 0.481406
vt 0.000000 0.481406
vt 0.063342 0.549067
vt 0.000000 0.549067
vt 0.063342 0.616727
vt 0.000000 0.616727
vt 0.063342 0.684388
vt 0.000000 0.684388
vt 0.848664 0.802751
vt 0.848664 0.767886
vt 0.865062 0.751488
vt 0.865062 0.819149
vt 0.865062 0.835547
vt 0.865062 0.870411
vt 0.848664 0.886809
vt 0.848664 0.819149
vt 0.440870 0.905102
vt 0.440870 0.935649
vt 0.424472 0.952047
vt 0.424472 0.888705
vt 0.424472 0.872307
vt 0.424472 0.841760
vt 0.440870 0.825362
vt 0.440870 0.888705
vt 0.884683 0.352760
vt 0.854137 0.352760
vt 0.884683 0.317896
vt 0.508159 0.379727
vt 0.682797 0.379727
vt 0.682797 0.759454
vt 0.508159 0.759454
vt 0.992444 0.830660
vt 0.948025 0.830660
vt 0.948025 0.656023
vt 0.992444 0.656023
vt 0.980821 0.174638
vt 0.917479 0.174638
vt 0.917479 -0.000000
vt 0.980821 -0.000000
vt -0.000000 0.825362
vt 0.044419 0.825362
vt 0.044419 1.000000
vt 0.000000 1.000000
vt 0.917479 0.174638
vt 0.980821 0.349275
vt 0.917479 0.349275
vt 0.813800 0.751488
vt 0.848664 0.751488
vt 0.848664 0.927178
vt 0.813800 0.927178
vt 0.948025 0.831713
vt 0.917479 0.831713
vt 0.917479 0.656023
vt 0.948025 0.656023
vt 0.674027 0.935144
vt 0.639162 0.935144
vt 0.639162 0.759454
vt 0.674027 0.759454
vt 0.936402 0.379727
vt 0.966949 0.379727
vt 0.966949 0.555417
vt 0.936402 0.555417
vt 0.682797 0.754706
vt 0.746139 0.754706
vt 0.746139 0.930170
vt 0.682797 0.930170
vt 0.746139 0.751488
vt 0.813800 0.751488
vt 0.813800 0.926952
vt 0.746139 0.926952
vt 0.639162 0.934918
vt 0.575820 0.934918
vt 0.575820 0.759454
vt 0.575820 0.934918
vt 0.508159 0.934918
vt 0.508159 0.759454
vt 0.575820 0.759454
s 0
usemtl Silla
f 1/1/1 3/4/1 4/3/1 2/2/1
f 3/5/2 7/8/2 8/7/2 4/6/2
f 7/9/3 5/12/3 6/11/3 8/10/3
f 5/13/4 1/16/4 2/15/4 6/14/4
f 5/13/4 12/18/4 10/17/4 1/16/4
f 8/19/5 6/22/5 2/21/5 4/20/5
f 56/23/1 48/26/1 47/25/1 55/24/1
f 24/27/1 16/18/1 14/13/1 23/28/1
f 1/1/1 10/30/1 9/29/1 3/4/1
f 14/31/2 16/34/2 15/33/2 13/32/2
f 23/35/5 41/35/5 42/35/5 33/35/5
f 34/36/6 15/39/6 16/38/6 24/37/6
f 33/40/3 13/43/3 15/42/3 34/41/3
f 79/44/6 83/46/6 18/6/6 11/45/6
f 11/47/1 18/50/1 17/49/1 7/48/1
f 7/51/3 29/54/3 38/53/3 11/52/3
f 29/54/3 30/56/3 37/55/3 38/53/3
f 30/56/3 31/58/3 36/57/3 37/55/3
f 31/59/3 32/62/3 35/61/3 36/60/3
f 32/63/3 33/66/3 34/65/3 35/64/3
f 11/67/6 38/70/6 28/69/6 9/68/6
f 38/71/6 37/74/6 27/73/6 28/72/6
f 37/72/6 36/77/6 26/76/6 27/75/6
f 36/78/6 35/81/6 25/80/6 26/79/6
f 35/82/6 34/85/6 24/84/6 25/83/6
f 3/86/5 19/89/5 29/88/5 7/87/5
f 19/89/5 20/91/5 30/90/5 29/88/5
f 20/91/5 21/93/5 31/92/5 30/90/5
f 21/93/5 22/95/5 32/94/5 31/92/5
f 22/95/5 23/97/5 33/96/5 32/94/5
f 9/29/1 28/99/1 19/98/1 3/4/1
f 28/99/1 27/101/1 20/100/1 19/98/1
f 27/101/1 26/103/1 21/102/1 20/100/1
f 26/103/1 25/105/1 22/104/1 21/102/1
f 25/105/1 24/27/1 23/28/1 22/104/1
f 41/106/4 45/109/4 46/108/4 42/107/4
f 33/35/5 42/35/5 39/35/5 13/35/5
f 14/35/5 40/35/5 41/35/5 23/35/5
f 13/35/5 39/35/5 40/35/5 14/35/5
f 45/110/5 44/113/5 43/112/5 46/111/5
f 40/114/1 44/117/1 45/116/1 41/115/1
f 42/118/3 46/86/3 43/11/3 39/119/3
f 39/120/2 43/123/2 44/122/2 40/121/2
f 47/124/6 48/127/6 50/126/6 49/125/6
f 61/128/4 50/131/4 48/130/4 56/129/4
f 55/132/2 47/67/2 49/68/2 70/133/2
f 70/134/3 49/78/3 50/79/3 61/135/3
f 11/136/3 66/139/3 65/138/3 12/137/3
f 66/140/3 77/71/3 76/72/3 65/141/3
f 78/107/3 69/143/3 62/142/3 75/106/3
f 62/35/5 72/35/5 71/35/5 61/35/5
f 9/144/2 51/147/2 66/146/2 11/145/2
f 51/148/2 52/150/2 77/75/2 66/149/2
f 52/151/2 53/154/2 78/153/2 77/152/2
f 53/155/2 54/82/2 69/83/2 78/156/2
f 54/154/2 55/158/2 70/157/2 69/153/2
f 12/18/4 65/160/4 60/159/4 10/17/4
f 65/149/4 76/75/4 59/162/4 60/161/4
f 76/163/4 75/166/4 58/165/4 59/164/4
f 75/166/4 62/168/4 57/167/4 58/165/4
f 62/168/4 61/128/4 56/129/4 57/167/4
f 10/30/1 60/170/1 51/169/1 9/29/1
f 60/170/1 59/172/1 52/171/1 51/169/1
f 59/172/1 58/174/1 53/173/1 52/171/1
f 58/174/1 57/176/1 54/175/1 53/173/1
f 57/176/1 56/23/1 55/24/1 54/175/1
f 69/35/5 73/35/5 72/35/5 62/35/5
f 70/35/5 74/35/5 73/35/5 69/35/5
f 61/35/5 71/35/5 74/35/5 70/35/5
f 63/177/3 75/180/3 76/179/3 64/178/3
f 67/181/3 77/184/3 78/183/3 68/182/3
f 64/185/3 76/188/3 77/187/3 67/186/3
f 68/189/3 78/192/3 75/191/3 63/190/3
f 86/193/3 88/195/3 87/97/3 85/194/3
f 7/196/5 17/199/5 84/198/5 82/197/5
f 18/200/2 83/203/2 84/202/2 17/201/2
f 7/204/5 82/207/5 81/206/5 5/205/5
f 5/208/4 81/211/4 80/210/4 12/209/4
f 12/212/6 80/214/6 79/213/6 11/204/6
f 64/215/4 88/218/4 86/217/4 63/216/4
f 67/219/5 87/222/5 88/221/5 64/220/5
f 68/223/2 85/226/2 87/225/2 67/224/2
f 63/227/6 86/230/6 85/229/6 68/228/6
f 71/231/6 92/234/6 90/233/6 74/232/6
f 72/235/4 91/238/4 92/237/4 71/236/4
f 73/239/5 89/225/5 91/241/5 72/240/5
f 74/242/2 90/245/2 89/244/2 73/243/2
f 93/1/3 94/2/3 96/3/3 95/4/3
f 95/5/2 96/6/2 100/7/2 99/8/2
f 99/9/1 100/10/1 98/11/1 97/12/1
f 97/13/4 98/14/4 94/15/4 93/16/4
f 97/13/4 93/16/4 102/17/4 104/18/4
f 100/19/5 96/20/5 94/21/5 98/22/5
f 148/23/3 147/24/3 139/25/3 140/26/3
f 116/27/3 115/28/3 106/13/3 108/18/3
f 93/1/3 95/4/3 101/29/3 102/30/3
f 106/31/2 105/32/2 107/33/2 108/34/2
f 115/35/5 125/35/5 134/35/5 133/35/5
f 126/36/6 116/37/6 108/38/6 107/39/6
f 125/40/1 126/41/1 107/42/1 105/43/1
f 171/44/6 103/45/6 110/6/6 175/46/6
f 103/47/3 99/48/3 109/49/3 110/50/3
f 99/51/1 103/52/1 130/53/1 121/54/1
f 121/54/1 130/53/1 129/55/1 122/56/1
f 122/56/1 129/55/1 128/57/1 123/58/1
f 123/59/1 128/60/1 127/61/1 124/62/1
f 124/63/1 127/64/1 126/65/1 125/66/1
f 103/67/6 101/68/6 120/69/6 130/70/6
f 130/71/6 120/72/6 119/73/6 129/74/6
f 129/72/6 119/75/6 118/76/6 128/77/6
f 128/78/6 118/79/6 117/80/6 127/81/6
f 127/82/6 117/83/6 116/84/6 126/85/6
f 95/86/5 99/87/5 121/88/5 111/89/5
f 111/89/5 121/88/5 122/90/5 112/91/5
f 112/91/5 122/90/5 123/92/5 113/93/5
f 113/93/5 123/92/5 124/94/5 114/95/5
f 114/95/5 124/94/5 125/96/5 115/97/5
f 101/29/3 95/4/3 111/98/3 120/99/3
f 120/99/3 111/98/3 112/100/3 119/101/3
f 119/101/3 112/100/3 113/102/3 118/103/3
f 118/103/3 113/102/3 114/104/3 117/105/3
f 117/105/3 114/104/3 115/28/3 116/27/3
f 133/106/4 134/107/4 138/108/4 137/109/4
f 125/35/5 105/35/5 131/35/5 134/35/5
f 106/35/5 115/35/5 133/35/5 132/35/5
f 105/35/5 106/35/5 132/35/5 131/35/5
f 137/110/5 138/111/5 135/112/5 136/113/5
f 132/114/3 133/115/3 137/116/3 136/117/3
f 134/118/1 131/119/1 135/11/1 138/86/1
f 131/120/2 132/121/2 136/122/2 135/123/2
f 139/124/6 141/125/6 142/126/6 140/127/6
f 153/128/4 148/129/4 140/130/4 142/131/4
f 147/132/2 162/133/2 141/68/2 139/67/2
f 162/134/1 153/135/1 142/79/1 141/78/1
f 103/136/1 104/137/1 157/138/1 158/139/1
f 158/140/1 157/141/1 168/72/1 169/71/1
f 170/107/1 167/106/1 154/142/1 161/143/1
f 154/35/5 153/35/5 163/35/5 164/35/5
f 101/144/2 103/145/2 158/146/2 143/147/2
f 143/148/2 158/149/2 169/75/2 144/150/2
f 144/151/2 169/152/2 170/153/2 145/154/2
f 145/155/2 170/156/2 161/83/2 146/82/2
f 146/154/2 161/153/2 162/157/2 147/158/2
f 104/18/4 102/17/4 152/159/4 157/160/4
f 157/149/4 152/161/4 151/162/4 168/75/4
f 168/163/4 151/164/4 150/165/4 167/166/4
f 167/166/4 150/165/4 149/167/4 154/168/4
f 154/168/4 149/167/4 148/129/4 153/128/4
f 102/30/3 101/29/3 143/169/3 152/170/3
f 152/170/3 143/169/3 144/171/3 151/172/3
f 151/172/3 144/171/3 145/173/3 150/174/3
f 150/174/3 145/173/3 146/175/3 149/176/3
f 149/176/3 146/175/3 147/24/3 148/23/3
f 161/35/5 154/35/5 164/35/5 165/35/5
f 162/35/5 161/35/5 165/35/5 166/35/5
f 153/35/5 162/35/5 166/35/5 163/35/5
f 155/177/1 156/178/1 168/179/1 167/180/1
f 159/181/1 160/182/1 170/183/1 169/184/1
f 156/185/1 159/186/1 169/187/1 168/188/1
f 160/189/1 155/190/1 167/191/1 170/192/1
f 178/193/1 177/194/1 179/97/1 180/195/1
f 99/196/5 174/197/5 176/198/5 109/199/5
f 110/200/2 109/201/2 176/202/2 175/203/2
f 99/204/5 97/205/5 173/206/5 174/207/5
f 97/208/4 104/209/4 172/210/4 173/211/4
f 104/212/6 103/204/6 171/213/6 172/214/6
f 156/215/4 155/216/4 178/217/4 180/218/4
f 159/219/5 156/220/5 180/221/5 179/222/5
f 160/223/2 159/224/2 179/225/2 177/226/2
f 155/227/6 160/228/6 177/229/6 178/230/6
f 163/231/6 166/232/6 182/233/6 184/234/6
f 164/235/4 163/236/4 184/237/4 183/238/4
f 165/239/5 164/240/5 183/241/5 181/225/5
f 166/242/2 165/243/2 181/244/2 182/245/2
